<?xml version="1.0" standalone="no"?>
<!DOCTYPE svg PUBLIC "-//W3C//DTD SVG 20010904//EN"
 "http://www.w3.org/TR/2001/REC-SVG-20010904/DTD/svg10.dtd">
<svg version="1.0" xmlns="http://www.w3.org/2000/svg"
 width="700.000000pt" height="700.000000pt" viewBox="0 0 700.000000 700.000000"
 preserveAspectRatio="xMidYMid meet">
<metadata>
Created by potrace 1.14, written by Peter Selinger 2001-2017
</metadata>
<g transform="translate(0.000000,700.000000) scale(0.100000,-0.100000)"
fill="#000000" stroke="none">
<path d="M0 3500 l0 -3500 3500 0 3500 0 0 3500 0 3500 -3500 0 -3500 0 0
-3500z m5240 1864 c58 -27 952 -645 1003 -693 21 -20 50 -61 65 -91 l27 -55 3
-664 c3 -659 2 -664 -19 -707 -15 -31 -35 -53 -67 -72 l-47 -27 -1983 0 -1984
0 -24 28 -24 28 0 612 c1 465 4 616 13 628 28 37 49 39 387 39 l332 0 29 -29
29 -29 0 -303 c0 -297 0 -303 22 -326 l21 -23 1313 0 c1279 0 1312 0 1335 19
l24 19 -2 257 c-2 229 -4 261 -21 293 -15 30 -79 79 -323 249 -167 117 -320
217 -339 223 -23 6 -414 10 -1140 10 -1048 0 -1107 1 -1145 19 -37 16 -118 98
-462 463 -69 72 -78 103 -43 138 20 20 29 20 1498 18 1475 -3 1477 -3 1522
-24z m1075 -2969 l25 -24 0 -351 0 -352 -29 -29 -29 -29 -2782 0 -2782 0 -29
29 -29 29 0 350 c0 338 1 350 21 376 l20 26 2795 0 2795 0 24 -25z"/>
</g>
</svg>
